# xmcd
#
# Track frame offsets: 
#        150
#        15775
#        35823
#        52820
#        72548
#        91748
#        100530
#        116175
#        130260
#        152115
#        167083
#
# Disc length: 2477 seconds
#
# Revision: 3
# Processed by: cddbd v1.5.2PL0 Copyright (c) Steve Scherf et al.
# Submitted via: ExactAudioCopy v0.95b2
#
DISCID=8509ab0b
DTITLE=Jerry Jeff Walker - Driftin' Way Of Life
DYEAR=1968
DGENRE=Country
TTITLE0=Driftin' Way Of Life
TTITLE1=Morning Song To Sally
TTITLE2=Shell Game
TTITLE3=Ranblin', Scramblin'
TTITLE4=No Roots In Ramblin'
TTITLE5=Old Road
TTITLE6=North Cumberland Blues
TTITLE7=Let It Ride
TTITLE8=Fading Lady
TTITLE9=Gertrude
TTITLE10=Dust On My Boots
EXTD=
EXTT0=
EXTT1=
EXTT2=
EXTT3=
EXTT4=
EXTT5=
EXTT6=
EXTT7=
EXTT8=
EXTT9=
EXTT10=
PLAYORDER=
